<?xml version="1.0" encoding="utf-8"?>
<!-- Generator: Adobe Illustrator 27.9.0, SVG Export Plug-In . SVG Version: 6.00 Build 0)  -->
<svg version="1.1" id="Layer_1" xmlns="http://www.w3.org/2000/svg" xmlns:xlink="http://www.w3.org/1999/xlink" x="0px" y="0px"
	 viewBox="0 0 512 512" style="enable-background:new 0 0 512 512;" xml:space="preserve">
<style type="text/css">
	.st0{fill:#18181C;}
</style>
<path class="st0" d="M275.9,255v-1.7v-20.8l0.1-7.3l-29.8,2.7h-0.5v29l-2.3,0.5c-1.8,0.5-4.3,1.2-5.3,1.9c-1.6,1.2-2.3,2.2-2.1,4
	l0.1,1.4c0.8,3.6,4.8,5.4,8.6,4.3l2.4-0.8c3.3-1.5,3.4-4.4,3.3-7.5v-3.4V256v-21.1L271,233v21.3l-2.3,0.5c-1.8,0.5-4.3,1.2-5.3,1.9
	c-1.6,1.2-2.3,2.2-2.1,4l0.1,1.4c0.8,3.6,4.8,5.4,8.6,4.3l2.4-0.8c3.3-1.5,3.4-4.4,3.3-7.5V255z"/>
</svg>
